<svg xmlns="http://www.w3.org/2000/svg" width="76.946" height="76.563" viewBox="0 0 76.946 76.563">
  <path id="icon-python" d="M45.651.574l2.871.638,2.329.829L52.733,3,54.168,4.02,55.253,5.1l.8,1.085.51,1.053.319.957.128.829.064.638-.032.415V27.116l-.16,2.01-.415,1.755-.67,1.467-.829,1.212-.957.989-1.053.8-1.117.606-1.117.447-1.053.319-.957.223-.829.128-.67.064H28.169l-2.2.16-1.882.447-1.6.7-1.308.861L20.13,40.323l-.861,1.117-.638,1.148-.479,1.18-.319,1.117-.223,1.021-.128.861-.064.67V57.2H10.3l-.67-.1-.893-.223L7.72,56.5,6.6,55.923l-1.148-.829L4.307,53.945,3.19,52.478,2.169,50.6l-.893-2.329-.67-2.807L.16,42.11,0,38.186l.191-3.892L.7,30.976,1.467,28.2l1.021-2.265,1.148-1.818,1.276-1.4,1.34-1.053,1.34-.766,1.276-.51,1.148-.319,1.021-.16.766-.032h.51l.191.032H38.537V17.259H19.906l-.032-8.773-.064-1.18.16-1.085.351-.989.542-.893.8-.829.989-.734,1.212-.638,1.4-.574,1.627-.479L28.743.7,30.785.383,33.05.191,35.506.064,38.186,0l4.051.16,3.413.415Zm-20.1,6.316-.734,1.053-.255,1.308.255,1.308.734,1.085,1.053.7,1.308.287,1.308-.287,1.053-.7.734-1.085.255-1.308-.255-1.308-.734-1.053-1.053-.7L27.914,5.9l-1.308.287Zm41.759,12.6.893.191,1.021.383,1.117.574,1.148.861,1.148,1.117,1.117,1.5L74.777,26l.893,2.329.67,2.807.447,3.318.16,3.924L76.754,42.3l-.51,3.318-.766,2.744-1.021,2.265-1.148,1.818-1.276,1.436-1.34,1.053-1.34.766-1.276.51-1.148.287-1.021.16-.766.064-.51-.032H38.409V59.3h18.63l.032,8.8.064,1.148-.16,1.085-.351.989-.542.925-.8.8-.989.766-1.212.638L51.68,75l-1.627.479-1.85.415-2.042.287L43.9,76.4l-2.456.128-2.68.032-4.051-.128L31.3,75.989l-2.871-.638-2.329-.8L24.213,73.6l-1.436-1.053-1.085-1.085-.8-1.085-.51-1.053-.319-.957-.128-.8-.064-.638.032-.415V49.479l.16-2.042.415-1.723.67-1.467.829-1.212.957-1.021,1.053-.766,1.117-.638,1.117-.447,1.053-.319.957-.191.829-.128.67-.064.415-.032h18.63l2.2-.16,1.882-.447,1.6-.67,1.308-.893,1.053-1.021.861-1.117.638-1.148.479-1.148.319-1.117.223-1.021.128-.893.064-.67V19.364H66.2l.447.032.67.1ZM46.672,64.951,45.938,66l-.255,1.308.255,1.308.734,1.053,1.053.734,1.308.255,1.308-.255,1.053-.734.734-1.053.255-1.308L52.127,66l-.734-1.053-1.053-.734-1.308-.255-1.308.255-1.053.734Z" fill="#815de7"/>
</svg>
