<svg xmlns="http://www.w3.org/2000/svg" width="80.665" height="76.119" viewBox="0 0 80.665 76.119">
  <path id="icon-react" d="M40.333,32.418a7.417,7.417,0,0,0-7.189,7.625,7.417,7.417,0,0,0,7.189,7.625,7.417,7.417,0,0,0,7.189-7.625A7.417,7.417,0,0,0,40.333,32.418ZM20.193,55.211l-1.586-.428C6.783,51.614,0,46.235,0,40.029S6.783,28.444,18.607,25.275l1.586-.424.447,1.668a87.076,87.076,0,0,0,4.581,12.754l.339.759-.339.759A86.249,86.249,0,0,0,20.64,53.546Zm-2.322-26.04c-8.987,2.677-14.5,6.773-14.5,10.858s5.515,8.177,14.5,10.858a92.271,92.271,0,0,1,3.973-10.858,91.537,91.537,0,0,1-3.973-10.858Zm42.6,26.04-.447-1.672a86.431,86.431,0,0,0-4.584-12.751l-.339-.759.339-.759a86.667,86.667,0,0,0,4.584-12.754l.447-1.668,1.59.424c11.821,3.169,18.6,8.548,18.6,14.758s-6.783,11.585-18.6,14.754Zm-1.65-15.182a91.45,91.45,0,0,1,3.973,10.858c8.991-2.681,14.5-6.776,14.5-10.858s-5.515-8.177-14.5-10.858a91.672,91.672,0,0,1-3.973,10.858ZM17.847,29.153,17.4,27.488C14.076,15.062,15.084,6.157,20.166,3.049,25.151,0,33.153,3.6,41.539,12.731l1.143,1.244-1.143,1.244A83.176,83.176,0,0,0,33.4,25.8l-.454.688-.79.071a75.342,75.342,0,0,0-12.722,2.174ZM24.22,5.519a4.478,4.478,0,0,0-2.37.617c-3.341,2.043-3.932,9.143-1.63,18.725a79.972,79.972,0,0,1,10.866-1.786,87.836,87.836,0,0,1,6.9-9.069C32.74,8.592,27.776,5.519,24.22,5.519ZM56.449,78.1h0c-4.79,0-10.94-3.825-17.323-10.776l-1.143-1.244,1.143-1.244a83.1,83.1,0,0,0,8.137-10.58l.454-.688L48.5,53.5a75.254,75.254,0,0,0,12.728-2.171l1.586-.424.45,1.668C66.586,64.992,65.581,73.9,60.5,77.005a7.643,7.643,0,0,1-4.05,1.1ZM42.682,66.051c5.243,5.415,10.208,8.488,13.764,8.488h0a4.466,4.466,0,0,0,2.366-.617c3.341-2.043,3.936-9.147,1.63-18.729a79.646,79.646,0,0,1-10.87,1.786,87.232,87.232,0,0,1-6.894,9.072Zm20.136-36.9-1.586-.424A74.773,74.773,0,0,0,48.5,26.554l-.786-.071-.454-.688a82.692,82.692,0,0,0-8.137-10.576l-1.143-1.244,1.143-1.244C47.508,3.6,55.508,0,60.5,3.049c5.082,3.108,6.09,12.013,2.77,24.436ZM49.576,23.075a79.39,79.39,0,0,1,10.87,1.786c2.306-9.582,1.711-16.683-1.63-18.725C55.494,4.1,49.253,7.22,42.682,14.007a87.85,87.85,0,0,1,6.894,9.069ZM24.22,78.1a7.643,7.643,0,0,1-4.053-1.1C15.084,73.9,14.076,65,17.4,52.573l.444-1.668,1.586.424A75.171,75.171,0,0,0,32.152,53.5l.79.071.45.688a83.335,83.335,0,0,0,8.14,10.58l1.143,1.244-1.143,1.244C35.153,74.278,29,78.1,24.22,78.1Zm-4-22.91c-2.306,9.582-1.711,16.686,1.63,18.729,3.317,2.007,9.555-1.087,16.133-7.871a88.374,88.374,0,0,1-6.9-9.072A79.507,79.507,0,0,1,20.22,55.193Zm20.113,2.239c-2.766,0-5.61-.128-8.456-.378l-.79-.071-.454-.688Q28.217,52.614,26.1,48.73t-3.919-7.942l-.336-.759.336-.759q1.8-4.056,3.919-7.942c1.391-2.552,2.921-5.1,4.537-7.564l.454-.688.79-.071a94.411,94.411,0,0,1,16.916,0l.786.071.45.688a108.725,108.725,0,0,1,8.46,15.506l.339.759-.339.759a107.255,107.255,0,0,1-8.46,15.506l-.45.688-.786.071C45.946,57.3,43.1,57.432,40.333,57.432Zm-7.384-3.864a92.06,92.06,0,0,0,14.772,0A105.111,105.111,0,0,0,55.1,40.029,103.581,103.581,0,0,0,47.717,26.49a92.018,92.018,0,0,0-14.768,0,103.19,103.19,0,0,0-7.384,13.539,105.5,105.5,0,0,0,7.384,13.539Z" transform="translate(0 -1.986)" fill="#815de7"/>
</svg>
