<svg xmlns="http://www.w3.org/2000/svg" width="150.271" height="76.563" viewBox="0 0 150.271 76.563">
  <path id="icon-javascript" d="M0,0H150.271V76.563H0ZM137.961,58.3c-1.1-3.493-5.56-6.428-18.8-9.165-4.608-1.1-9.73-1.866-11.252-3.637-.57-1.053-.657-1.627-.288-2.249.939-2.061,5.729-2.68,9.486-2.105a10.548,10.548,0,0,1,6.111,2.871c6.474-2.157,6.474-2.157,10.989-3.589a19.646,19.646,0,0,0-3.669-2.488c-3.945-2.249-9.2-3.4-17.744-3.3l-4.414.284c-4.233.526-8.265,1.675-10.707,3.206-7.138,4.118-5.078,11.3,3.563,14.263,8.547,3.254,21.044,3.969,22.641,7.034,1.5,3.732-5.447,4.929-12.31,4.5-5.078-.574-7.889-1.869-10.989-4.262L89.117,63.018c1.315,1.531,2.818,2.2,5.072,3.538,10.895,5.6,38.131,5.315,43.021-3.2a5.872,5.872,0,0,0,.463-5.264l.288.214ZM81.716,35.19H67.641c0,6.182-.056,12.327-.056,18.519,0,3.93.394,7.538-.864,8.648-2.066,2.2-7.388,1.917-9.805,1.531a11.387,11.387,0,0,1-5.2-2.728,3.606,3.606,0,0,0-.8-.625L39.5,64.125a18.99,18.99,0,0,0,8.29,4.839c5.353,1.627,12.548,2.153,20.08,1.292,4.9-.721,9.129-2.2,11.339-4.5,3.193-2.967,2.517-6.6,2.486-10.674.075-6.553,0-13.108,0-19.712l.025-.179Z" fill="#815de7"/>
</svg>
